<?xml version="1.0" encoding="utf-8" standalone="no"?>
<!DOCTYPE svg PUBLIC "-//W3C//DTD SVG 1.1//EN"
  "http://www.w3.org/Graphics/SVG/1.1/DTD/svg11.dtd">
<svg height="360pt" version="1.1" viewBox="0 0 691.2 360" width="691.2pt" xmlns="http://www.w3.org/2000/svg" xmlns:xlink="http://www.w3.org/1999/xlink">
 <metadata>
  <rdf:RDF xmlns:cc="http://creativecommons.org/ns#" xmlns:dc="http://purl.org/dc/elements/1.1/" xmlns:rdf="http://www.w3.org/1999/02/22-rdf-syntax-ns#">
   <cc:Work>
    <dc:type rdf:resource="http://purl.org/dc/dcmitype/StillImage"/>
    <dc:date>2021-10-12T13:32:05.861563</dc:date>
    <dc:format>image/svg+xml</dc:format>
    <dc:creator>
     <cc:Agent>
      <dc:title>Matplotlib v3.4.3, https://matplotlib.org/</dc:title>
     </cc:Agent>
    </dc:creator>
   </cc:Work>
  </rdf:RDF>
 </metadata>
 <defs>
  <style type="text/css">*{stroke-linecap:butt;stroke-linejoin:round;}</style>
 </defs>
 <g id="figure_1">
  <g id="patch_1">
   <path d="M 0 360 
L 691.2 360 
L 691.2 0 
L 0 0 
z
" style="fill:#ffffff;"/>
  </g>
  <g id="axes_1">
   <g id="patch_2">
    <path d="M 68.127279 302.652 
L 659.6496 302.652 
L 659.6496 22.3056 
L 68.127279 22.3056 
z
" style="fill:#ffffff;"/>
   </g>
   <g id="matplotlib.axis_1">
    <g id="xtick_1">
     <g id="text_1">
      <!-- 0.0 -->
      <g style="fill:#262626;" transform="translate(57.19388 322.599852)scale(0.1375 -0.1375)">
       <defs>
        <path d="M 2034 4250 
Q 1547 4250 1301 3770 
Q 1056 3291 1056 2328 
Q 1056 1369 1301 889 
Q 1547 409 2034 409 
Q 2525 409 2770 889 
Q 3016 1369 3016 2328 
Q 3016 3291 2770 3770 
Q 2525 4250 2034 4250 
z
M 2034 4750 
Q 2819 4750 3233 4129 
Q 3647 3509 3647 2328 
Q 3647 1150 3233 529 
Q 2819 -91 2034 -91 
Q 1250 -91 836 529 
Q 422 1150 422 2328 
Q 422 3509 836 4129 
Q 1250 4750 2034 4750 
z
" id="DejaVuSans-30" transform="scale(0.015625)"/>
        <path d="M 684 794 
L 1344 794 
L 1344 0 
L 684 0 
L 684 794 
z
" id="DejaVuSans-2e" transform="scale(0.015625)"/>
       </defs>
       <use xlink:href="#DejaVuSans-30"/>
       <use x="63.623047" xlink:href="#DejaVuSans-2e"/>
       <use x="95.410156" xlink:href="#DejaVuSans-30"/>
      </g>
     </g>
    </g>
    <g id="xtick_2">
     <g id="text_2">
      <!-- 2.5 -->
      <g style="fill:#262626;" transform="translate(131.13417 322.599852)scale(0.1375 -0.1375)">
       <defs>
        <path d="M 1228 531 
L 3431 531 
L 3431 0 
L 469 0 
L 469 531 
Q 828 903 1448 1529 
Q 2069 2156 2228 2338 
Q 2531 2678 2651 2914 
Q 2772 3150 2772 3378 
Q 2772 3750 2511 3984 
Q 2250 4219 1831 4219 
Q 1534 4219 1204 4116 
Q 875 4013 500 3803 
L 500 4441 
Q 881 4594 1212 4672 
Q 1544 4750 1819 4750 
Q 2544 4750 2975 4387 
Q 3406 4025 3406 3419 
Q 3406 3131 3298 2873 
Q 3191 2616 2906 2266 
Q 2828 2175 2409 1742 
Q 1991 1309 1228 531 
z
" id="DejaVuSans-32" transform="scale(0.015625)"/>
        <path d="M 691 4666 
L 3169 4666 
L 3169 4134 
L 1269 4134 
L 1269 2991 
Q 1406 3038 1543 3061 
Q 1681 3084 1819 3084 
Q 2600 3084 3056 2656 
Q 3513 2228 3513 1497 
Q 3513 744 3044 326 
Q 2575 -91 1722 -91 
Q 1428 -91 1123 -41 
Q 819 9 494 109 
L 494 744 
Q 775 591 1075 516 
Q 1375 441 1709 441 
Q 2250 441 2565 725 
Q 2881 1009 2881 1497 
Q 2881 1984 2565 2268 
Q 2250 2553 1709 2553 
Q 1456 2553 1204 2497 
Q 953 2441 691 2322 
L 691 4666 
z
" id="DejaVuSans-35" transform="scale(0.015625)"/>
       </defs>
       <use xlink:href="#DejaVuSans-32"/>
       <use x="63.623047" xlink:href="#DejaVuSans-2e"/>
       <use x="95.410156" xlink:href="#DejaVuSans-35"/>
      </g>
     </g>
    </g>
    <g id="xtick_3">
     <g id="text_3">
      <!-- 5.0 -->
      <g style="fill:#262626;" transform="translate(205.074461 322.599852)scale(0.1375 -0.1375)">
       <use xlink:href="#DejaVuSans-35"/>
       <use x="63.623047" xlink:href="#DejaVuSans-2e"/>
       <use x="95.410156" xlink:href="#DejaVuSans-30"/>
      </g>
     </g>
    </g>
    <g id="xtick_4">
     <g id="text_4">
      <!-- 7.5 -->
      <g style="fill:#262626;" transform="translate(279.014751 322.599852)scale(0.1375 -0.1375)">
       <defs>
        <path d="M 525 4666 
L 3525 4666 
L 3525 4397 
L 1831 0 
L 1172 0 
L 2766 4134 
L 525 4134 
L 525 4666 
z
" id="DejaVuSans-37" transform="scale(0.015625)"/>
       </defs>
       <use xlink:href="#DejaVuSans-37"/>
       <use x="63.623047" xlink:href="#DejaVuSans-2e"/>
       <use x="95.410156" xlink:href="#DejaVuSans-35"/>
      </g>
     </g>
    </g>
    <g id="xtick_5">
     <g id="text_5">
      <!-- 10.0 -->
      <g style="fill:#262626;" transform="translate(348.580822 322.599852)scale(0.1375 -0.1375)">
       <defs>
        <path d="M 794 531 
L 1825 531 
L 1825 4091 
L 703 3866 
L 703 4441 
L 1819 4666 
L 2450 4666 
L 2450 531 
L 3481 531 
L 3481 0 
L 794 0 
L 794 531 
z
" id="DejaVuSans-31" transform="scale(0.015625)"/>
       </defs>
       <use xlink:href="#DejaVuSans-31"/>
       <use x="63.623047" xlink:href="#DejaVuSans-30"/>
       <use x="127.246094" xlink:href="#DejaVuSans-2e"/>
       <use x="159.033203" xlink:href="#DejaVuSans-30"/>
      </g>
     </g>
    </g>
    <g id="xtick_6">
     <g id="text_6">
      <!-- 12.5 -->
      <g style="fill:#262626;" transform="translate(422.521112 322.599852)scale(0.1375 -0.1375)">
       <use xlink:href="#DejaVuSans-31"/>
       <use x="63.623047" xlink:href="#DejaVuSans-32"/>
       <use x="127.246094" xlink:href="#DejaVuSans-2e"/>
       <use x="159.033203" xlink:href="#DejaVuSans-35"/>
      </g>
     </g>
    </g>
    <g id="xtick_7">
     <g id="text_7">
      <!-- 15.0 -->
      <g style="fill:#262626;" transform="translate(496.461402 322.599852)scale(0.1375 -0.1375)">
       <use xlink:href="#DejaVuSans-31"/>
       <use x="63.623047" xlink:href="#DejaVuSans-35"/>
       <use x="127.246094" xlink:href="#DejaVuSans-2e"/>
       <use x="159.033203" xlink:href="#DejaVuSans-30"/>
      </g>
     </g>
    </g>
    <g id="xtick_8">
     <g id="text_8">
      <!-- 17.5 -->
      <g style="fill:#262626;" transform="translate(570.401693 322.599852)scale(0.1375 -0.1375)">
       <use xlink:href="#DejaVuSans-31"/>
       <use x="63.623047" xlink:href="#DejaVuSans-37"/>
       <use x="127.246094" xlink:href="#DejaVuSans-2e"/>
       <use x="159.033203" xlink:href="#DejaVuSans-35"/>
      </g>
     </g>
    </g>
    <g id="xtick_9">
     <g id="text_9">
      <!-- 20.0 -->
      <g style="fill:#262626;" transform="translate(644.341983 322.599852)scale(0.1375 -0.1375)">
       <use xlink:href="#DejaVuSans-32"/>
       <use x="63.623047" xlink:href="#DejaVuSans-30"/>
       <use x="127.246094" xlink:href="#DejaVuSans-2e"/>
       <use x="159.033203" xlink:href="#DejaVuSans-30"/>
      </g>
     </g>
    </g>
    <g id="text_10">
     <!-- ρ -->
     <g style="fill:#262626;" transform="translate(359.127111 340.857078)scale(0.15 -0.15)">
      <defs>
       <path d="M 863 2875 
Q 1053 3194 1525 3475 
Q 1709 3584 2278 3584 
Q 2916 3584 3314 3078 
Q 3713 2572 3713 1747 
Q 3713 922 3314 415 
Q 2916 -91 2278 -91 
Q 1894 -91 1617 61 
Q 1341 213 1159 525 
L 1159 -1331 
L 581 -1331 
L 581 1716 
Q 581 2438 863 2875 
z
M 3116 1747 
Q 3116 2381 2855 2742 
Q 2594 3103 2138 3103 
Q 1681 3103 1420 2742 
Q 1159 2381 1159 1747 
Q 1159 1113 1420 752 
Q 1681 391 2138 391 
Q 2594 391 2855 752 
Q 3116 1113 3116 1747 
z
" id="DejaVuSans-3c1" transform="scale(0.015625)"/>
      </defs>
      <use xlink:href="#DejaVuSans-3c1"/>
     </g>
    </g>
   </g>
   <g id="matplotlib.axis_2">
    <g id="ytick_1">
     <g id="text_11">
      <!-- $\mathdefault{10^{0}}$ -->
      <g style="fill:#262626;" transform="translate(34.427279 307.570345)scale(0.1375 -0.1375)">
       <use transform="translate(0 0.765625)" xlink:href="#DejaVuSans-31"/>
       <use transform="translate(63.623047 0.765625)" xlink:href="#DejaVuSans-30"/>
       <use transform="translate(128.203125 39.046875)scale(0.7)" xlink:href="#DejaVuSans-30"/>
      </g>
     </g>
    </g>
    <g id="ytick_2">
     <g id="text_12">
      <!-- $\mathdefault{10^{1}}$ -->
      <g style="fill:#262626;" transform="translate(34.427279 237.56014)scale(0.1375 -0.1375)">
       <use transform="translate(0 0.684375)" xlink:href="#DejaVuSans-31"/>
       <use transform="translate(63.623047 0.684375)" xlink:href="#DejaVuSans-30"/>
       <use transform="translate(128.203125 38.965625)scale(0.7)" xlink:href="#DejaVuSans-31"/>
      </g>
     </g>
    </g>
    <g id="ytick_3">
     <g id="text_13">
      <!-- $\mathdefault{10^{2}}$ -->
      <g style="fill:#262626;" transform="translate(34.427279 167.549935)scale(0.1375 -0.1375)">
       <use transform="translate(0 0.765625)" xlink:href="#DejaVuSans-31"/>
       <use transform="translate(63.623047 0.765625)" xlink:href="#DejaVuSans-30"/>
       <use transform="translate(128.203125 39.046875)scale(0.7)" xlink:href="#DejaVuSans-32"/>
      </g>
     </g>
    </g>
    <g id="ytick_4">
     <g id="text_14">
      <!-- $\mathdefault{10^{3}}$ -->
      <g style="fill:#262626;" transform="translate(34.427279 97.539731)scale(0.1375 -0.1375)">
       <defs>
        <path d="M 2597 2516 
Q 3050 2419 3304 2112 
Q 3559 1806 3559 1356 
Q 3559 666 3084 287 
Q 2609 -91 1734 -91 
Q 1441 -91 1130 -33 
Q 819 25 488 141 
L 488 750 
Q 750 597 1062 519 
Q 1375 441 1716 441 
Q 2309 441 2620 675 
Q 2931 909 2931 1356 
Q 2931 1769 2642 2001 
Q 2353 2234 1838 2234 
L 1294 2234 
L 1294 2753 
L 1863 2753 
Q 2328 2753 2575 2939 
Q 2822 3125 2822 3475 
Q 2822 3834 2567 4026 
Q 2313 4219 1838 4219 
Q 1578 4219 1281 4162 
Q 984 4106 628 3988 
L 628 4550 
Q 988 4650 1302 4700 
Q 1616 4750 1894 4750 
Q 2613 4750 3031 4423 
Q 3450 4097 3450 3541 
Q 3450 3153 3228 2886 
Q 3006 2619 2597 2516 
z
" id="DejaVuSans-33" transform="scale(0.015625)"/>
       </defs>
       <use transform="translate(0 0.765625)" xlink:href="#DejaVuSans-31"/>
       <use transform="translate(63.623047 0.765625)" xlink:href="#DejaVuSans-30"/>
       <use transform="translate(128.203125 39.046875)scale(0.7)" xlink:href="#DejaVuSans-33"/>
      </g>
     </g>
    </g>
    <g id="ytick_5">
     <g id="text_15">
      <!-- $\mathdefault{10^{4}}$ -->
      <g style="fill:#262626;" transform="translate(34.427279 27.529526)scale(0.1375 -0.1375)">
       <defs>
        <path d="M 2419 4116 
L 825 1625 
L 2419 1625 
L 2419 4116 
z
M 2253 4666 
L 3047 4666 
L 3047 1625 
L 3713 1625 
L 3713 1100 
L 3047 1100 
L 3047 0 
L 2419 0 
L 2419 1100 
L 313 1100 
L 313 1709 
L 2253 4666 
z
" id="DejaVuSans-34" transform="scale(0.015625)"/>
       </defs>
       <use transform="translate(0 0.684375)" xlink:href="#DejaVuSans-31"/>
       <use transform="translate(63.623047 0.684375)" xlink:href="#DejaVuSans-30"/>
       <use transform="translate(128.203125 38.965625)scale(0.7)" xlink:href="#DejaVuSans-34"/>
      </g>
     </g>
    </g>
    <g id="ytick_6"/>
    <g id="ytick_7"/>
    <g id="ytick_8"/>
    <g id="ytick_9"/>
    <g id="ytick_10"/>
    <g id="ytick_11"/>
    <g id="ytick_12"/>
    <g id="ytick_13"/>
    <g id="ytick_14"/>
    <g id="ytick_15"/>
    <g id="ytick_16"/>
    <g id="ytick_17"/>
    <g id="ytick_18"/>
    <g id="ytick_19"/>
    <g id="ytick_20"/>
    <g id="ytick_21"/>
    <g id="ytick_22"/>
    <g id="ytick_23"/>
    <g id="ytick_24"/>
    <g id="ytick_25"/>
    <g id="ytick_26"/>
    <g id="ytick_27"/>
    <g id="ytick_28"/>
    <g id="ytick_29"/>
    <g id="ytick_30"/>
    <g id="ytick_31"/>
    <g id="ytick_32"/>
    <g id="ytick_33"/>
    <g id="ytick_34"/>
    <g id="ytick_35"/>
    <g id="ytick_36"/>
    <g id="ytick_37"/>
    <g id="text_16">
     <!-- β -->
     <g style="fill:#262626;" transform="translate(27.307747 167.264738)rotate(-90)scale(0.15 -0.15)">
      <defs>
       <path d="M 1178 216 
L 1178 -1331 
L 600 -1331 
L 600 3478 
Q 600 4903 1931 4903 
Q 3288 4903 3288 3700 
Q 3288 2844 2750 2531 
Q 3625 2250 3625 1416 
Q 3625 -66 2119 -66 
Q 1456 -66 1178 216 
z
M 1178 966 
Q 1525 425 2141 425 
Q 3041 425 3041 1406 
Q 3041 2288 1591 2219 
L 1591 2750 
Q 2725 2750 2725 3750 
Q 2725 4434 1994 4434 
Q 1178 4434 1178 3459 
L 1178 966 
z
" id="DejaVuSans-3b2" transform="scale(0.015625)"/>
      </defs>
      <use xlink:href="#DejaVuSans-3b2"/>
     </g>
    </g>
   </g>
   <g id="line2d_1">
    <path clip-path="url(#pf607890515)" d="M 97.999156 162.023469 
L 98.561369 193.838563 
L 99.123581 208.605239 
L 99.685794 218.199371 
L 100.248006 225.253713 
L 101.372432 235.334315 
L 102.496857 242.450947 
L 103.621282 247.879301 
L 104.745708 252.220206 
L 105.870133 255.804608 
L 106.994558 258.834094 
L 108.681196 262.614407 
L 110.367834 265.721025 
L 112.054472 268.332035 
L 113.74111 270.565003 
L 115.427748 272.501415 
L 117.676599 274.721095 
L 119.925449 276.615554 
L 122.1743 278.254387 
L 124.985363 280.019008 
L 127.796427 281.533513 
L 131.169703 283.091855 
L 135.105191 284.631097 
L 139.04068 285.936982 
L 143.538381 287.20754 
L 148.598295 288.416823 
L 154.782634 289.652363 
L 161.529186 290.769564 
L 169.400163 291.845337 
L 178.395566 292.851689 
L 189.077606 293.820338 
L 202.008497 294.756326 
L 217.188239 295.621862 
L 235.741257 296.443718 
L 258.229763 297.204771 
L 285.778183 297.905679 
L 320.635368 298.558661 
L 365.050168 299.156143 
L 422.958071 299.700191 
L 499.981205 300.189349 
L 606.239398 300.627594 
L 659.6496 300.786844 
L 659.6496 300.786844 
" style="fill:none;stroke:#4c72b0;stroke-linecap:round;stroke-width:3;"/>
   </g>
   <g id="line2d_2">
    <path clip-path="url(#pf607890515)" d="M 97.999156 140.948298 
L 98.561369 172.763391 
L 99.123581 187.530067 
L 99.685794 197.1242 
L 100.248006 204.178541 
L 101.372432 214.259143 
L 102.496857 221.375775 
L 103.621282 226.804129 
L 104.745708 231.145034 
L 105.870133 234.729436 
L 106.994558 237.758923 
L 108.681196 241.539236 
L 110.367834 244.645854 
L 112.054472 247.256863 
L 113.74111 249.489832 
L 115.427748 251.426244 
L 117.676599 253.645924 
L 119.925449 255.540382 
L 122.1743 257.179215 
L 124.985363 258.943837 
L 127.796427 260.458341 
L 131.169703 262.016684 
L 135.105191 263.555925 
L 139.04068 264.86181 
L 143.538381 266.132368 
L 148.598295 267.341652 
L 154.782634 268.577191 
L 161.529186 269.694392 
L 169.400163 270.770165 
L 178.395566 271.776518 
L 189.077606 272.745166 
L 202.008497 273.681154 
L 217.188239 274.546691 
L 235.741257 275.368546 
L 258.229763 276.129599 
L 285.778183 276.830508 
L 320.635368 277.48349 
L 365.050168 278.080971 
L 422.958071 278.625019 
L 499.981205 279.114177 
L 606.239398 279.552422 
L 659.6496 279.711672 
L 659.6496 279.711672 
" style="fill:none;stroke:#dd8452;stroke-linecap:round;stroke-width:3;"/>
   </g>
   <g id="line2d_3">
    <path clip-path="url(#pf607890515)" d="M 97.999156 113.088436 
L 98.561369 144.90353 
L 99.123581 159.670206 
L 99.685794 169.264338 
L 100.248006 176.31868 
L 101.372432 186.399282 
L 102.496857 193.515914 
L 103.621282 198.944268 
L 104.745708 203.285173 
L 105.870133 206.869575 
L 106.994558 209.899061 
L 108.681196 213.679374 
L 110.367834 216.785992 
L 112.054472 219.397002 
L 113.74111 221.62997 
L 115.427748 223.566382 
L 117.676599 225.786062 
L 119.925449 227.680521 
L 122.1743 229.319353 
L 124.985363 231.083975 
L 127.796427 232.59848 
L 131.169703 234.156822 
L 135.105191 235.696064 
L 139.04068 237.001949 
L 143.538381 238.272506 
L 148.598295 239.48179 
L 154.782634 240.71733 
L 161.529186 241.834531 
L 169.400163 242.910303 
L 178.395566 243.916656 
L 189.077606 244.885305 
L 202.008497 245.821292 
L 217.188239 246.686829 
L 235.741257 247.508685 
L 258.229763 248.269738 
L 285.778183 248.970646 
L 320.635368 249.623628 
L 365.050168 250.22111 
L 422.958071 250.765158 
L 499.981205 251.254316 
L 606.239398 251.692561 
L 659.6496 251.851811 
L 659.6496 251.851811 
" style="fill:none;stroke:#55a868;stroke-linecap:round;stroke-width:3;"/>
   </g>
   <g id="line2d_4">
    <path clip-path="url(#pf607890515)" d="M 97.999156 92.013265 
L 98.561369 123.828358 
L 99.123581 138.595034 
L 99.685794 148.189167 
L 100.248006 155.243508 
L 101.372432 165.32411 
L 102.496857 172.440742 
L 103.621282 177.869096 
L 104.745708 182.210001 
L 105.870133 185.794403 
L 106.994558 188.823889 
L 108.681196 192.604202 
L 110.367834 195.710821 
L 112.054472 198.32183 
L 113.74111 200.554798 
L 115.427748 202.491211 
L 117.676599 204.71089 
L 119.925449 206.605349 
L 122.1743 208.244182 
L 124.985363 210.008803 
L 127.796427 211.523308 
L 131.169703 213.081651 
L 135.105191 214.620892 
L 139.04068 215.926777 
L 143.538381 217.197335 
L 148.598295 218.406619 
L 154.782634 219.642158 
L 161.529186 220.759359 
L 169.400163 221.835132 
L 178.395566 222.841484 
L 189.077606 223.810133 
L 202.008497 224.746121 
L 217.188239 225.611658 
L 235.741257 226.433513 
L 258.229763 227.194566 
L 285.778183 227.895474 
L 320.635368 228.548457 
L 365.050168 229.145938 
L 422.958071 229.689986 
L 499.981205 230.179144 
L 606.239398 230.617389 
L 659.6496 230.776639 
L 659.6496 230.776639 
" style="fill:none;stroke:#c44e52;stroke-linecap:round;stroke-width:3;"/>
   </g>
   <g id="line2d_5">
    <path clip-path="url(#pf607890515)" d="M 97.999156 70.938093 
L 98.561369 102.753187 
L 99.123581 117.519863 
L 99.685794 127.113995 
L 100.248006 134.168337 
L 101.372432 144.248938 
L 102.496857 151.365571 
L 103.621282 156.793925 
L 104.745708 161.134829 
L 105.870133 164.719232 
L 106.994558 167.748718 
L 108.681196 171.529031 
L 110.367834 174.635649 
L 112.054472 177.246658 
L 113.74111 179.479627 
L 115.427748 181.416039 
L 117.676599 183.635719 
L 119.925449 185.530177 
L 122.1743 187.16901 
L 124.985363 188.933632 
L 127.796427 190.448137 
L 131.169703 192.006479 
L 135.105191 193.54572 
L 139.04068 194.851605 
L 143.538381 196.122163 
L 148.598295 197.331447 
L 154.782634 198.566986 
L 161.529186 199.684188 
L 169.400163 200.75996 
L 178.395566 201.766313 
L 189.077606 202.734961 
L 202.008497 203.670949 
L 217.188239 204.536486 
L 235.741257 205.358342 
L 258.229763 206.119394 
L 285.778183 206.820303 
L 320.635368 207.473285 
L 365.050168 208.070766 
L 422.958071 208.614814 
L 499.981205 209.103973 
L 606.239398 209.542217 
L 659.6496 209.701468 
L 659.6496 209.701468 
" style="fill:none;stroke:#8172b3;stroke-linecap:round;stroke-width:3;"/>
   </g>
   <g id="line2d_6">
    <path clip-path="url(#pf607890515)" d="M 97.999156 43.078231 
L 98.561369 74.893325 
L 99.123581 89.660001 
L 99.685794 99.254133 
L 100.248006 106.308475 
L 101.372432 116.389077 
L 102.496857 123.505709 
L 103.621282 128.934063 
L 104.745708 133.274968 
L 105.870133 136.85937 
L 106.994558 139.888856 
L 108.681196 143.669169 
L 110.367834 146.775787 
L 112.054472 149.386797 
L 113.74111 151.619765 
L 115.427748 153.556178 
L 117.676599 155.775857 
L 119.925449 157.670316 
L 122.1743 159.309149 
L 124.985363 161.07377 
L 127.796427 162.588275 
L 131.169703 164.146618 
L 135.105191 165.685859 
L 139.04068 166.991744 
L 143.538381 168.262302 
L 148.598295 169.471585 
L 154.782634 170.707125 
L 161.529186 171.824326 
L 169.400163 172.900099 
L 178.395566 173.906451 
L 189.077606 174.8751 
L 202.008497 175.811088 
L 217.188239 176.676624 
L 235.741257 177.49848 
L 258.229763 178.259533 
L 285.778183 178.960441 
L 320.635368 179.613424 
L 365.050168 180.210905 
L 422.958071 180.754953 
L 499.981205 181.244111 
L 606.239398 181.682356 
L 659.6496 181.841606 
L 659.6496 181.841606 
" style="fill:none;stroke:#937860;stroke-linecap:round;stroke-width:3;"/>
   </g>
   <g id="line2d_7">
    <path clip-path="url(#pf607890515)" d="M 97.999156 22.00306 
L 98.561369 53.818153 
L 99.123581 68.584829 
L 99.685794 78.178962 
L 100.248006 85.233303 
L 101.372432 95.313905 
L 102.496857 102.430538 
L 103.621282 107.858891 
L 104.745708 112.199796 
L 105.870133 115.784199 
L 106.994558 118.813685 
L 108.681196 122.593998 
L 110.367834 125.700616 
L 112.054472 128.311625 
L 113.74111 130.544594 
L 115.427748 132.481006 
L 117.676599 134.700686 
L 119.925449 136.595144 
L 122.1743 138.233977 
L 124.985363 139.998599 
L 127.796427 141.513103 
L 131.169703 143.071446 
L 135.105191 144.610687 
L 139.04068 145.916572 
L 143.538381 147.18713 
L 148.598295 148.396414 
L 154.782634 149.631953 
L 161.529186 150.749154 
L 169.400163 151.824927 
L 178.395566 152.83128 
L 189.077606 153.799928 
L 202.008497 154.735916 
L 217.188239 155.601453 
L 235.741257 156.423308 
L 258.229763 157.184361 
L 285.778183 157.88527 
L 320.635368 158.538252 
L 365.050168 159.135733 
L 422.958071 159.679781 
L 499.981205 160.168939 
L 606.239398 160.607184 
L 659.6496 160.766435 
L 659.6496 160.766435 
" style="fill:none;stroke:#da8bc3;stroke-linecap:round;stroke-width:3;"/>
   </g>
   <g id="patch_3">
    <path d="M 68.127279 302.652 
L 68.127279 22.3056 
" style="fill:none;stroke:#262626;stroke-linecap:square;stroke-linejoin:miter;stroke-width:1.25;"/>
   </g>
   <g id="patch_4">
    <path d="M 68.127279 302.652 
L 659.6496 302.652 
" style="fill:none;stroke:#262626;stroke-linecap:square;stroke-linejoin:miter;stroke-width:1.25;"/>
   </g>
   <g id="legend_1">
    <g id="patch_5">
     <path d="M 258.8371 73.670444 
L 650.0246 73.670444 
Q 652.7746 73.670444 652.7746 70.920444 
L 652.7746 31.9306 
Q 652.7746 29.1806 650.0246 29.1806 
L 258.8371 29.1806 
Q 256.0871 29.1806 256.0871 31.9306 
L 256.0871 70.920444 
Q 256.0871 73.670444 258.8371 73.670444 
z
" style="fill:#ffffff;opacity:0.8;stroke:#cccccc;stroke-linejoin:miter;"/>
    </g>
    <g id="line2d_8">
     <path d="M 261.5871 40.315952 
L 289.0871 40.315952 
" style="fill:none;stroke:#4c72b0;stroke-linecap:round;stroke-width:3;"/>
    </g>
    <g id="line2d_9"/>
    <g id="text_17">
     <!-- τ=1 -->
     <g style="fill:#262626;" transform="translate(300.0871 45.128452)scale(0.1375 -0.1375)">
      <defs>
       <path d="M 2319 638 
Q 2431 488 2769 488 
L 3047 488 
L 3047 0 
L 2700 0 
Q 2138 0 1881 300 
Q 1625 606 1625 1269 
L 1625 2925 
L 313 2925 
L 313 3500 
L 3541 3500 
L 3541 2925 
L 2213 2925 
L 2213 1234 
Q 2213 781 2319 638 
z
" id="DejaVuSans-3c4" transform="scale(0.015625)"/>
       <path d="M 678 2906 
L 4684 2906 
L 4684 2381 
L 678 2381 
L 678 2906 
z
M 678 1631 
L 4684 1631 
L 4684 1100 
L 678 1100 
L 678 1631 
z
" id="DejaVuSans-3d" transform="scale(0.015625)"/>
      </defs>
      <use xlink:href="#DejaVuSans-3c4"/>
      <use x="60.205078" xlink:href="#DejaVuSans-3d"/>
      <use x="143.994141" xlink:href="#DejaVuSans-31"/>
     </g>
    </g>
    <g id="line2d_10">
     <path d="M 261.5871 60.498373 
L 289.0871 60.498373 
" style="fill:none;stroke:#dd8452;stroke-linecap:round;stroke-width:3;"/>
    </g>
    <g id="line2d_11"/>
    <g id="text_18">
     <!-- τ=2 -->
     <g style="fill:#262626;" transform="translate(300.0871 65.310873)scale(0.1375 -0.1375)">
      <use xlink:href="#DejaVuSans-3c4"/>
      <use x="60.205078" xlink:href="#DejaVuSans-3d"/>
      <use x="143.994141" xlink:href="#DejaVuSans-32"/>
     </g>
    </g>
    <g id="line2d_12">
     <path d="M 356.135537 40.315952 
L 383.635537 40.315952 
" style="fill:none;stroke:#55a868;stroke-linecap:round;stroke-width:3;"/>
    </g>
    <g id="line2d_13"/>
    <g id="text_19">
     <!-- τ=5 -->
     <g style="fill:#262626;" transform="translate(394.635537 45.128452)scale(0.1375 -0.1375)">
      <use xlink:href="#DejaVuSans-3c4"/>
      <use x="60.205078" xlink:href="#DejaVuSans-3d"/>
      <use x="143.994141" xlink:href="#DejaVuSans-35"/>
     </g>
    </g>
    <g id="line2d_14">
     <path d="M 356.135537 60.498373 
L 383.635537 60.498373 
" style="fill:none;stroke:#c44e52;stroke-linecap:round;stroke-width:3;"/>
    </g>
    <g id="line2d_15"/>
    <g id="text_20">
     <!-- τ=10 -->
     <g style="fill:#262626;" transform="translate(394.635537 65.310873)scale(0.1375 -0.1375)">
      <use xlink:href="#DejaVuSans-3c4"/>
      <use x="60.205078" xlink:href="#DejaVuSans-3d"/>
      <use x="143.994141" xlink:href="#DejaVuSans-31"/>
      <use x="207.617188" xlink:href="#DejaVuSans-30"/>
     </g>
    </g>
    <g id="line2d_16">
     <path d="M 459.432412 40.315952 
L 486.932412 40.315952 
" style="fill:none;stroke:#8172b3;stroke-linecap:round;stroke-width:3;"/>
    </g>
    <g id="line2d_17"/>
    <g id="text_21">
     <!-- τ=20 -->
     <g style="fill:#262626;" transform="translate(497.932412 45.128452)scale(0.1375 -0.1375)">
      <use xlink:href="#DejaVuSans-3c4"/>
      <use x="60.205078" xlink:href="#DejaVuSans-3d"/>
      <use x="143.994141" xlink:href="#DejaVuSans-32"/>
      <use x="207.617188" xlink:href="#DejaVuSans-30"/>
     </g>
    </g>
    <g id="line2d_18">
     <path d="M 459.432412 60.498373 
L 486.932412 60.498373 
" style="fill:none;stroke:#937860;stroke-linecap:round;stroke-width:3;"/>
    </g>
    <g id="line2d_19"/>
    <g id="text_22">
     <!-- τ=50 -->
     <g style="fill:#262626;" transform="translate(497.932412 65.310873)scale(0.1375 -0.1375)">
      <use xlink:href="#DejaVuSans-3c4"/>
      <use x="60.205078" xlink:href="#DejaVuSans-3d"/>
      <use x="143.994141" xlink:href="#DejaVuSans-35"/>
      <use x="207.617188" xlink:href="#DejaVuSans-30"/>
     </g>
    </g>
    <g id="line2d_20">
     <path d="M 562.729287 40.315952 
L 590.229287 40.315952 
" style="fill:none;stroke:#da8bc3;stroke-linecap:round;stroke-width:3;"/>
    </g>
    <g id="line2d_21"/>
    <g id="text_23">
     <!-- τ=100 -->
     <g style="fill:#262626;" transform="translate(601.229287 45.128452)scale(0.1375 -0.1375)">
      <use xlink:href="#DejaVuSans-3c4"/>
      <use x="60.205078" xlink:href="#DejaVuSans-3d"/>
      <use x="143.994141" xlink:href="#DejaVuSans-31"/>
      <use x="207.617188" xlink:href="#DejaVuSans-30"/>
      <use x="271.240234" xlink:href="#DejaVuSans-30"/>
     </g>
    </g>
   </g>
  </g>
 </g>
 <defs>
  <clipPath id="pf607890515">
   <rect height="280.3464" width="591.522321" x="68.127279" y="22.3056"/>
  </clipPath>
 </defs>
</svg>
